<?xml version="1.0" encoding="utf-8"?>
<!-- Generator: Adobe Illustrator 18.0.0, SVG Export Plug-In . SVG Version: 6.00 Build 0)  -->
<!DOCTYPE svg PUBLIC "-//W3C//DTD SVG 1.1//EN" "http://www.w3.org/Graphics/SVG/1.1/DTD/svg11.dtd">
<svg version="1.1" id="Calque_1" xmlns="http://www.w3.org/2000/svg" xmlns:xlink="http://www.w3.org/1999/xlink" x="0px" y="0px"
	 viewBox="0 0 283.5 283.5" enable-background="new 0 0 283.5 283.5" xml:space="preserve">
<path fill="#A0B77C" d="M7.1,141.6C7.1,67,67.6,6.5,142.2,6.5c74.6,0,135.1,60.5,135.1,135.1c0,74.6-60.5,135.1-135.1,135.1
	C67.6,276.6,7.1,216.2,7.1,141.6"/>
<path fill="#FFFFFF" d="M219.6,157.5l-45.1-91.1l-0.2-0.5c0,0-0.1-0.1-0.1-0.1l-7.7-15.4l-0.2-0.5c-0.3-0.4-0.8-0.7-1.3-0.7
	c-0.5,0-1,0.3-1.3,0.7l-0.2,0.5l-26.5,54.4l-4.1,8.4h-21l4.2-8.7L131,73.7c0.2-0.3,0.2-0.7,0-1l-11.1-22.4l-0.2-0.5
	c-0.3-0.4-0.8-0.7-1.3-0.7c-0.5,0-1,0.3-1.3,0.7l-0.2,0.5L93.2,98.8l-7,14.5l-21.4,44.1c-0.4,0.7,0.2,1.6,1,1.6
	c5.6-0.2,22.6-1.6,29.7-12.1c0-0.1,0.1-0.1,0.1-0.2l6.8-13.9h21l-12,24.6c-0.4,0.7,0.2,1.6,1,1.6c5.6-0.2,22.6-1.6,29.7-12.1
	c0-0.1,0.1-0.1,0.1-0.2l6.8-13.9h6.6v0l9.2,0c1.4,0,2.3-1.5,1.7-2.8l-7.2-14.8c-0.3-0.5-0.7-1-1.1-1.3l6.9-14.2l6.8,13.5l0.9,1.8
	l1.9,3.7h0l5,10.1h0.1l9.2,18.3c7.1,10.5,24.2,12,29.7,12.1C219.4,159.1,220,158.3,219.6,157.5"/>
<path fill="#FFFFFF" d="M74.2,197.4c-0.5-0.4-1.1-0.6-1.7-0.6c-1.5,0-2.6,1.2-2.6,2.7c0,1.4,1.1,2.7,2.6,2.7c0.6,0,1.3-0.2,1.8-0.7
	v1c-0.5,0.3-1.2,0.5-1.7,0.5c-1.9,0-3.4-1.5-3.4-3.4c0-1.9,1.6-3.5,3.5-3.5c0.6,0,1.2,0.1,1.7,0.4V197.4z"/>
<path fill="#FFFFFF" d="M82.6,199.4c0,2-1.5,3.4-3.4,3.4c-1.9,0-3.4-1.5-3.4-3.4c0-1.9,1.6-3.4,3.4-3.4
	C81,196,82.6,197.6,82.6,199.4 M81.8,199.4c0-1.4-1.1-2.7-2.6-2.7c-1.5,0-2.6,1.2-2.6,2.7c0,1.5,1.2,2.7,2.6,2.7
	C80.6,202.1,81.8,200.9,81.8,199.4"/>
<polygon fill="#FFFFFF" points="85.5,198.4 85.4,198.4 84.7,202.7 83.8,202.7 85.2,195.9 87.4,201.1 89.7,195.9 91,202.7 
	90.2,202.7 89.4,198.4 89.4,198.4 87.4,202.9 "/>
<polygon fill="#FFFFFF" points="93.8,198.4 93.8,198.4 93,202.7 92.2,202.7 93.5,195.9 95.8,201.1 98,195.9 99.4,202.7 98.5,202.7 
	97.8,198.4 97.8,198.4 95.8,202.9 "/>
<path fill="#FFFFFF" d="M101.8,196.2v3.9c0,1.1,0.3,2.1,1.6,2.1c1.3,0,1.6-1,1.6-2.1v-3.9h0.8v4.2c0,1.4-0.9,2.6-2.4,2.6
	c-1.5,0-2.4-1.1-2.4-2.6v-4.2H101.8z"/>
<polygon fill="#FFFFFF" points="107.8,195.8 112.7,201 112.7,196.2 113.5,196.2 113.5,203 108.6,197.8 108.6,202.7 107.8,202.7 "/>
<path fill="#FFFFFF" d="M116.6,201.1l-0.8,1.6H115l3.1-6.8l3.1,6.8h-0.9l-0.8-1.6H116.6z M118.1,197.7l-1.2,2.7h2.3L118.1,197.7z"/>
<path fill="#FFFFFF" d="M123.4,196.2v3.9c0,1.1,0.3,2.1,1.6,2.1c1.3,0,1.6-1,1.6-2.1v-3.9h0.8v4.2c0,1.4-0.9,2.6-2.4,2.6
	c-1.5,0-2.4-1.1-2.4-2.6v-4.2H123.4z"/>
<polygon fill="#FFFFFF" points="131.3,202.7 130.5,202.7 130.5,196.9 128.9,196.9 128.9,196.2 132.8,196.2 132.8,196.9 131.3,196.9 
	"/>
<path fill="#FFFFFF" d="M134.4,196.2h3.5v0.7h-2.7v1.8h2.6v0.7h-2.6v2.5h2.7v0.7h-3.5V196.2z M137.3,194.4l-1.4,1.3l-0.4-0.2
	l1.1-1.4L137.3,194.4z"/>
<path fill="#FFFFFF" d="M143.3,196.2h1.4c2,0,3.7,1.1,3.7,3.2c0,2.2-1.6,3.3-3.7,3.3h-1.3V196.2z M144.2,202h0.3
	c1.7,0,3.1-0.6,3.1-2.5c0-1.9-1.4-2.5-3.1-2.5h-0.3V202z"/>
<polygon fill="#FFFFFF" points="150.2,196.2 153.7,196.2 153.7,196.9 151,196.9 151,198.7 153.6,198.7 153.6,199.5 151,199.5 
	151,202 153.7,202 153.7,202.7 150.2,202.7 "/>
<path fill="#FFFFFF" d="M163.9,197.4c-0.5-0.4-1.1-0.6-1.7-0.6c-1.5,0-2.6,1.2-2.6,2.7c0,1.4,1.1,2.7,2.6,2.7c0.6,0,1.3-0.2,1.8-0.7
	v1c-0.5,0.3-1.2,0.5-1.7,0.5c-1.9,0-3.4-1.5-3.4-3.4c0-1.9,1.6-3.5,3.5-3.5c0.6,0,1.2,0.1,1.7,0.4V197.4z"/>
<path fill="#FFFFFF" d="M172.2,199.4c0,2-1.5,3.4-3.4,3.4c-1.9,0-3.4-1.5-3.4-3.4c0-1.9,1.6-3.4,3.4-3.4
	C170.7,196,172.2,197.6,172.2,199.4 M171.4,199.4c0-1.4-1.1-2.7-2.6-2.7c-1.5,0-2.6,1.2-2.6,2.7c0,1.5,1.2,2.7,2.6,2.7
	C170.2,202.1,171.4,200.9,171.4,199.4"/>
<polygon fill="#FFFFFF" points="175.1,198.4 175.1,198.4 174.3,202.7 173.5,202.7 174.8,195.9 177.1,201.1 179.3,195.9 180.7,202.7 
	179.8,202.7 179.1,198.4 179,198.4 177.1,202.9 "/>
<polygon fill="#FFFFFF" points="183.5,198.4 183.5,198.4 182.7,202.7 181.8,202.7 183.2,195.9 185.4,201.1 187.7,195.9 189,202.7 
	188.2,202.7 187.4,198.4 187.4,198.4 185.4,202.9 "/>
<path fill="#FFFFFF" d="M191.4,196.2v3.9c0,1.1,0.3,2.1,1.6,2.1c1.3,0,1.6-1,1.6-2.1v-3.9h0.8v4.2c0,1.4-0.9,2.6-2.4,2.6
	s-2.4-1.1-2.4-2.6v-4.2H191.4z"/>
<polygon fill="#FFFFFF" points="197.4,195.8 202.4,201 202.4,196.2 203.2,196.2 203.2,203 198.3,197.8 198.3,202.7 197.4,202.7 "/>
<polygon fill="#FFFFFF" points="205.3,196.2 208.8,196.2 208.8,196.9 206.1,196.9 206.1,198.7 208.8,198.7 208.8,199.5 206.1,199.5 
	206.1,202 208.8,202 208.8,202.7 205.3,202.7 "/>
<path fill="#FFFFFF" d="M213.7,197.4c-0.2-0.4-0.6-0.6-1.1-0.6c-0.5,0-1.1,0.4-1.1,0.9c0,0.5,0.5,0.8,0.9,0.9l0.5,0.2
	c0.9,0.4,1.6,0.9,1.6,2c0,1.2-0.9,2-2.1,2c-1.1,0-1.9-0.8-2-1.8l0.8-0.2c0,0.7,0.6,1.2,1.3,1.2c0.7,0,1.2-0.6,1.2-1.3
	c0-0.7-0.6-1-1.1-1.2l-0.5-0.2c-0.8-0.3-1.4-0.7-1.4-1.7c0-1.1,0.9-1.7,1.9-1.7c0.7,0,1.3,0.4,1.7,1L213.7,197.4z"/>
<polygon fill="#FFFFFF" points="77.9,179.1 71.9,179.1 71.9,173 68.9,173 68.9,189.2 71.9,189.2 71.9,182 77.9,182 77.9,189.2 
	80.9,189.2 80.9,173 77.9,173 "/>
<path fill="#FFFFFF" d="M81.8,189.2h3.3l1.7-3.8H93l1.7,3.8H98l-8.1-17.6L81.8,189.2z M91.7,182.6h-3.6l1.8-4.2L91.7,182.6z"/>
<path fill="#FFFFFF" d="M107.9,182.5c0,3.8-1.8,4.2-3.1,4.2c-1.3,0-3.1-0.4-3.1-4.2V173h-3v10.1c0,1.8,0.6,3.4,1.6,4.6
	c1.1,1.2,2.7,1.9,4.5,1.9c3.6,0,6.1-2.6,6.1-6.4V173h-3V182.5z"/>
<polygon fill="#FFFFFF" points="112.2,175.8 115.8,175.8 115.8,189.2 118.8,189.2 118.8,175.8 122.4,175.8 122.4,173 112.2,173 "/>
<polygon fill="#FFFFFF" points="123.9,189.2 133.2,189.2 133.2,186.4 126.9,186.4 126.9,181.8 133,181.8 133,178.9 126.9,178.9 
	126.9,175.8 133.2,175.8 133.2,173 123.9,173 "/>
<rect x="135.3" y="180.3" fill="#FFFFFF" width="5.5" height="2.6"/>
<path fill="#FFFFFF" d="M141.5,189.2h3.3l1.7-3.8h6.2l1.7,3.8h3.3l-8.1-17.6L141.5,189.2z M151.4,182.6h-3.6l1.8-4.1L151.4,182.6z"
	/>
<path fill="#FFFFFF" d="M168,177.9c0-1.7-0.9-3.3-2.3-4.1c-1.4-0.8-3-0.8-4.3-0.8h-2.8l0,16.2h3v-6.3l4.4,6.3h3.7l-4.9-6.8
	C166.8,181.8,168,180.1,168,177.9 M165.2,177.9c0,1.6-1,2.2-3.4,2.2h0v-4.3C164.1,175.8,165.2,176.4,165.2,177.9"/>
<rect x="170.7" y="173" fill="#FFFFFF" width="3" height="16.2"/>
<polygon fill="#FFFFFF" points="176.6,189.2 185.8,189.2 185.8,186.4 179.6,186.4 179.6,181.8 185.6,181.8 185.6,178.9 179.6,178.9 
	179.6,175.8 185.8,175.8 185.8,173 176.6,173 "/>
<path fill="#FFFFFF" d="M196,183.3h3.8c-0.4,1.9-2.5,3.4-4.3,3.4c-2.8,0-5.3-2.6-5.3-5.6c0-1.5,0.6-2.9,1.6-3.9c1-1,2.4-1.6,3.9-1.6
	c1.6,0,3.3,0.9,4.3,2.2l0.4,0.5l2.2-2.1l-0.3-0.4c-1.6-2-4-3.1-6.6-3.1c-2.2,0-4.4,0.9-5.9,2.5c-1.6,1.6-2.4,3.7-2.4,6
	c0,4.5,3.8,8.4,8.2,8.4c4.5,0,7.7-3.3,7.7-7.9v-1.2H196V183.3z"/>
<polygon fill="#FFFFFF" points="214.3,175.8 214.3,173 205,173 205,189.2 214.3,189.2 214.3,186.4 208,186.4 208,181.8 214.1,181.8 
	214.1,178.9 208,178.9 208,175.8 "/>
<polygon fill="#FFFFFF" points="183.7,171 180.5,166.8 177.7,168.3 181.9,172.1 "/>
</svg>
